<?xml version="1.0" encoding="iso-8859-1"?>
<!-- Uploaded to: SVG Repo, www.svgrepo.com, Generator: SVG Repo Mixer Tools -->
<!DOCTYPE svg PUBLIC "-//W3C//DTD SVG 1.1//EN" "http://www.w3.org/Graphics/SVG/1.1/DTD/svg11.dtd">
<svg height="800px" width="800px" version="1.1" id="Capa_1" xmlns="http://www.w3.org/2000/svg" xmlns:xlink="http://www.w3.org/1999/xlink" 
	 viewBox="0 0 58 58" xml:space="preserve">
<g>
	<path style="fill:#049CFF;" d="M23.936,54.07c0.539-0.12,0.879-0.654,0.76-1.193c-0.121-0.539-0.663-0.874-1.193-0.759
		l-7.252,1.614c-0.003-0.002-0.007-0.003-0.01-0.005l-0.171,0.045l-0.326,0.073c-0.027,0.006-0.047,0.024-0.073,0.032L0,58
		l4.988-14.963C2.457,38.78,1,33.812,1,28.5C1,12.76,13.76,0,29.5,0S58,12.76,58,28.5S45.24,57,29.5,57
		c-3.603,0-7.048-0.673-10.221-1.894L23.936,54.07z"/>
	<path style="fill:#FFFFFF;" d="M30,22H16c-0.552,0-1-0.448-1-1s0.448-1,1-1h14c0.552,0,1,0.448,1,1S30.552,22,30,22z"/>
	<path style="fill:#FFFFFF;" d="M43,30H16c-0.552,0-1-0.448-1-1s0.448-1,1-1h27c0.552,0,1,0.448,1,1S43.552,30,43,30z"/>
	<path style="fill:#FFFFFF;" d="M43,38H16c-0.552,0-1-0.448-1-1s0.448-1,1-1h27c0.552,0,1,0.448,1,1S43.552,38,43,38z"/>
</g>
</svg>